<?xml version="1.0" encoding="UTF-8" standalone="no"?>
<svg
   xmlns:dc="http://purl.org/dc/elements/1.1/"
   xmlns:cc="http://creativecommons.org/ns#"
   xmlns:rdf="http://www.w3.org/1999/02/22-rdf-syntax-ns#"
   xmlns:svg="http://www.w3.org/2000/svg"
   xmlns="http://www.w3.org/2000/svg"
   xmlns:sodipodi="http://sodipodi.sourceforge.net/DTD/sodipodi-0.dtd"
   xmlns:inkscape="http://www.inkscape.org/namespaces/inkscape"
   inkscape:version="1.0 (4035a4f, 2020-05-01)"
   sodipodi:docname="checkphish_dark.svg"
   id="svg65"
   version="1.1"
   fill="none"
   viewBox="0 0 250 50"
   height="50"
   width="250">
  <metadata
     id="metadata69">
    <rdf:RDF>
      <cc:Work
         rdf:about="">
        <dc:format>image/svg+xml</dc:format>
        <dc:type
           rdf:resource="http://purl.org/dc/dcmitype/StillImage" />
        <dc:title></dc:title>
      </cc:Work>
    </rdf:RDF>
  </metadata>
  <sodipodi:namedview
     inkscape:current-layer="svg65"
     inkscape:window-maximized="1"
     inkscape:window-y="296"
     inkscape:window-x="1680"
     inkscape:cy="25"
     inkscape:cx="125"
     inkscape:zoom="2.816"
     showgrid="false"
     id="namedview67"
     inkscape:window-height="1305"
     inkscape:window-width="2560"
     inkscape:pageshadow="2"
     inkscape:pageopacity="0"
     guidetolerance="10"
     gridtolerance="10"
     objecttolerance="10"
     borderopacity="1"
     bordercolor="#666666"
     pagecolor="#ffffff" />
  <g
     style="fill:#ffffff"
     id="g58"
     clip-path="url(#clip0)">
    <path
       style="fill:#ffffff"
       id="path10"
       fill="#040404"
       d="M82.5724 19.0015C81.3939 20.9301 79.751 21.9301 77.6439 21.9301C74.2153 21.9301 71.8939 19.2158 71.8939 15.1801C71.8939 11.2158 74.2153 8.53725 77.6439 8.53725C79.7867 8.53725 81.4296 9.46582 82.5724 11.323L82.6796 11.4658L85.6082 9.57296L85.501 9.43011C83.7153 6.68011 80.9653 5.21582 77.5367 5.21582C72.0724 5.21582 68.3582 9.25153 68.3582 15.2158C68.3582 21.323 71.9653 25.2873 77.5367 25.2873C81.001 25.2873 83.7867 23.7515 85.5724 20.823L85.6796 20.6801L82.6082 18.8944L82.5724 19.0015Z" />
    <path
       style="fill:#ffffff"
       id="path12"
       fill="#040404"
       d="M101.68 13.001H92.6082V5.50098H88.8939V24.8938H92.6082V16.3581H101.68V24.8938H105.394V5.50098H101.68V13.001Z" />
    <path
       style="fill:#ffffff"
       id="path14"
       fill="#040404"
       d="M112.787 16.3224H121.93V13.0367H112.787V8.78669H123.287V5.50098H109.072V24.8938H123.572V21.6081H112.787V16.3224Z" />
    <path
       style="fill:#ffffff"
       id="path16"
       fill="#040404"
       d="M140.323 19.0015C139.144 20.9301 137.501 21.9301 135.394 21.9301C131.966 21.9301 129.644 19.2158 129.644 15.1801C129.644 11.2158 131.966 8.53725 135.394 8.53725C137.537 8.53725 139.18 9.46582 140.323 11.323L140.43 11.4658L143.359 9.57296L143.251 9.43011C141.466 6.68011 138.716 5.21582 135.287 5.21582C129.68 5.21582 125.751 9.32296 125.751 15.2158C125.751 21.1444 129.68 25.2873 135.287 25.2873C138.751 25.2873 141.537 23.7515 143.323 20.823L143.43 20.6801L140.359 18.8944L140.323 19.0015Z" />
    <path
       style="fill:#ffffff"
       id="path18"
       fill="#040404"
       d="M163.073 5.50098H158.537L150.323 14.7153V5.50098H146.644V24.8938H150.323V19.6081L153.252 16.3224L159.323 24.8938H163.752L155.787 13.6081L163.073 5.50098Z" />
    <path
       style="fill:#ffffff"
       id="path20"
       fill="#040404"
       d="M174.645 5.50098H166.181V24.8938H169.895V18.0724H174.645C179.002 18.0724 181.752 15.6795 181.752 11.8224C181.752 7.92955 179.038 5.50098 174.645 5.50098ZM169.895 8.78669H174.645C176.788 8.78669 177.966 9.85812 177.966 11.8224C177.966 13.751 176.788 14.8224 174.645 14.8224H169.895V8.78669Z" />
    <path
       style="fill:#ffffff"
       id="path22"
       fill="#040404"
       d="M197.964 13.001H188.893V5.50098H185.179V24.8938H188.893V16.3581H197.964V24.8938H201.679V5.50098H197.964V13.001Z" />
    <path
       style="fill:#ffffff"
       id="path24"
       fill="#040404"
       d="M209.75 5.50098H206.071V24.8938H209.75V5.50098Z" />
    <path
       style="fill:#ffffff"
       id="path26"
       fill="#040404"
       d="M221.965 13.1436L221.858 13.1078C219.644 12.6078 217.858 12.215 217.858 10.5721C217.858 8.53641 220.144 8.32213 221.144 8.32213C223.18 8.32213 224.93 9.14355 226.072 10.6436L226.18 10.7864L229.001 8.89355L228.894 8.7507C227.215 6.42927 224.537 5.14355 221.287 5.14355C216.965 5.14355 214.18 7.39355 214.18 10.8578C214.18 14.715 217.43 15.8936 220.93 16.6436L221.072 16.6793C223.68 17.215 225.537 17.5721 225.537 19.4293C225.537 21.0364 224.072 22.0364 221.751 22.0364C219.358 22.0364 217.394 21.0007 216.287 19.1436L216.18 19.0007L213.18 20.7507L213.251 20.8936C214.787 23.6436 217.787 25.215 221.537 25.215C226.144 25.215 229.215 22.715 229.215 19.0364C229.251 15.0007 225.822 13.965 221.965 13.1436Z" />
    <path
       style="fill:#ffffff"
       id="path28"
       fill="#040404"
       d="M245.573 5.50098V13.001H236.502V5.50098H232.788V24.8938H236.502V16.3581H245.573V24.8938H249.288V5.50098H245.573Z" />
    <path
       style="fill:#ffffff"
       id="path30"
       fill="#4479F3"
       d="M181.679 39.1066C182.536 38.6066 183 37.7494 183 36.7852C183 35.0709 181.643 34.0352 179.321 34.0352H174.464V45.1066H179.679C182 45.1066 183.429 43.8566 183.429 41.8923C183.429 40.6066 182.821 39.6423 181.679 39.1066ZM176.536 40.178H179.607C180.643 40.178 181.286 40.7494 181.286 41.7494C181.286 42.7137 180.643 43.2494 179.571 43.2494H176.536V40.178ZM179.321 38.428H176.571V35.8566H179.25C180.393 35.8566 180.929 36.2494 180.929 37.0709C180.929 37.928 180.321 38.428 179.321 38.428Z" />
    <path
       style="fill:#ffffff"
       id="path32"
       fill="#4479F3"
       d="M190.5 33.8223C187.25 33.8223 185 36.1794 185 39.5366C185 42.8937 187.25 45.2508 190.5 45.2508C193.75 45.2508 196 42.8937 196 39.5366C196 36.1794 193.75 33.8223 190.5 33.8223ZM193.857 39.5366C193.857 41.858 192.536 43.358 190.5 43.358C188.464 43.358 187.143 41.858 187.143 39.5366C187.143 37.2151 188.464 35.7151 190.5 35.7151C192.536 35.7508 193.857 37.2508 193.857 39.5366Z" />
    <path
       style="fill:#ffffff"
       id="path34"
       fill="#4479F3"
       d="M200.037 34.0352H198.001V45.0709H205.894V43.178H200.037V34.0352Z" />
    <path
       style="fill:#ffffff"
       id="path36"
       fill="#4479F3"
       d="M212.68 38.3931H212.608C211.322 38.1074 210.287 37.8931 210.287 36.9289C210.287 35.7503 211.608 35.6074 212.18 35.6074C213.358 35.6074 214.358 36.0717 215.037 36.9646L215.072 37.036L216.644 36.0003L216.608 35.9288C215.644 34.6074 214.108 33.8574 212.287 33.8574C209.822 33.8574 208.251 35.1431 208.251 37.1074C208.251 39.286 210.108 39.9646 212.108 40.3931H212.18C213.68 40.6789 214.751 40.8931 214.751 42.0003C214.751 42.9289 213.894 43.536 212.537 43.536C211.144 43.536 210.037 42.9289 209.358 41.8574L209.322 41.786L207.644 42.7503L207.68 42.8217C208.572 44.3931 210.287 45.286 212.394 45.286C215.001 45.286 216.787 43.8574 216.787 41.786C216.822 39.4646 214.858 38.8574 212.68 38.3931Z" />
    <path
       style="fill:#ffffff"
       id="path38"
       fill="#4479F3"
       d="M218.606 35.8566H222.213V45.0709H224.249V35.8566H227.856V34.0352H218.606V35.8566Z" />
    <path
       style="fill:#ffffff"
       id="path40"
       fill="#4479F3"
       d="M231.965 40.178H237.215V38.3566H231.965V35.8566H238V34.0352H229.893V45.0709H238.143V43.2494H231.965V40.178Z" />
    <path
       style="fill:#ffffff"
       id="path42"
       fill="#4479F3"
       d="M246.821 40.4994C248.178 39.9637 248.964 38.7852 248.964 37.3923C248.964 35.3209 247.464 34.0352 245.071 34.0352H240.107V45.1066H242.178V40.928H244.821L246.999 45.1066H249.321L246.821 40.4994ZM242.178 35.8566H245.035C246.142 35.8566 246.857 36.4994 246.857 37.5352C246.857 38.5352 246.142 39.178 245.071 39.178H242.178V35.8566Z" />
    <path
       style="fill:#ffffff"
       id="path44"
       fill="#4479F3"
       d="M152.536 34.5713H154.071V36.7499C154.071 37.2141 154.071 38.1784 154 39.107H154.071C154.5 38.2499 155.357 37.8927 156.393 37.8927C158.143 37.8927 159.5 39.1784 159.5 41.4999C159.5 43.8213 158.071 45.2141 156.286 45.2141C155.286 45.2141 154.536 44.857 154.071 43.9999H154V45.0356H152.5V34.5713H152.536ZM154.071 41.5713C154.071 43.107 154.893 43.9999 156 43.9999C157.107 43.9999 157.893 43.0713 157.893 41.5356C157.893 39.9999 157.107 39.1784 156 39.1784C154.929 39.1784 154.143 40.0356 154.071 41.4641V41.5713Z" />
    <path
       style="fill:#ffffff"
       id="path46"
       fill="#4479F3"
       d="M160.714 38.0703H162.393L164.214 43.4275H164.286L166.107 38.0703H167.679L164.821 45.9989C164.393 47.1417 163.679 48.2846 162.143 48.2846H161.357V46.9989H161.821C162.607 46.9989 163.179 46.5346 163.5 45.6417L163.714 44.9989H163.357L160.714 38.0703Z" />
    <path
       style="fill:#ffffff"
       id="path48"
       fill="#4479F3"
       d="M53.9643 14.25C53.0714 13.0357 52.1429 11.8929 51.25 10.8929C44.5714 3.5 37.5 1.14286 32.9286 0.392857C31.1429 0.178571 29.3571 0.0714286 27.5 0V49.9643C28.1429 49.9643 28.7857 49.9643 29.3929 49.9286C29.5 49.9286 29.5714 49.9286 29.6786 49.8929C31.7857 49.75 33.8214 49.5357 35.8214 49.1786C36.8571 48.9643 37.8571 48.7143 38.8214 48.3571C44.3571 46.4286 48.5714 43 51.75 39.3571C52.2857 38.75 52.7857 38.1429 53.25 37.5357C58.1071 31.1786 59.9643 24.7857 59.9643 24.7857C58.1071 20.6071 56.0714 17.1429 53.9643 14.25Z" />
    <path
       style="fill:#ffffff"
       id="path50"
       fill="white"
       d="M44 20C46.2091 20 48 18.2091 48 16C48 13.7909 46.2091 12 44 12C41.7909 12 40 13.7909 40 16C40 18.2091 41.7909 20 44 20Z" />
    <path
       style="fill:#ffffff"
       id="path52"
       fill="#040404"
       d="M44 18C45.1046 18 46 17.1046 46 16C46 14.8954 45.1046 14 44 14C42.8954 14 42 14.8954 42 16C42 17.1046 42.8954 18 44 18Z" />
    <path
       style="fill:#ffffff"
       id="path54"
       fill="black"
       d="M13.1072 0C12.9643 0 12.8572 0.107143 12.8572 0.25V3.42857C12.8572 3.57143 12.9643 3.67857 13.1072 3.67857C18.3929 3.82143 22.6072 8.10714 22.6072 13.4286C22.6072 18.7143 18.3929 23 13.1429 23.1786H12.8572V23.4286V26.6071V26.8571C18.25 26.8571 22.6072 31.2143 22.6072 36.6071C22.6072 41.9286 18.3572 46.25 13.1072 46.3571C12.9643 46.3571 12.8572 46.4643 12.8572 46.6071V49.7857C12.8572 49.9286 12.9643 50.0357 13.1072 50.0357L27.5 50V26.5357V23.3929V0H13.1072Z" />
    <path
       style="fill:#ffffff"
       id="path56"
       fill="black"
       d="M12.8571 36.5353V13.4282C12.8571 13.321 12.75 13.2139 12.6429 13.2139H0.214286C0.107143 13.2139 0 13.321 0 13.4282V16.2139C0 16.321 0.107143 16.4282 0.214286 16.4282C4.85714 16.5353 8.57143 20.321 8.57143 24.9996C8.57143 29.6782 4.85714 33.4639 0.214286 33.571C0.107143 33.571 0 33.6782 0 33.7853V36.571C0 36.6782 0.107143 36.7853 0.214286 36.7853L12.6429 36.7496C12.75 36.7496 12.8571 36.6424 12.8571 36.5353Z" />
  </g>
  <defs
     id="defs63">
    <clipPath
       id="clip0">
      <rect
         id="rect60"
         fill="white"
         height="50"
         width="249.286" />
    </clipPath>
  </defs>
</svg>
